<svg version="1.1" xmlns="http://www.w3.org/2000/svg" xmlns:xlink="http://www.w3.org/1999/xlink" x="0px" y="0px"
	 viewBox="0 0 500 500" style="enable-background:new 0 0 500 500;" xml:space="preserve">
<path opacity="0.09" d="M293.32 646.492C274.362 646.768 255.405 646.979 236.455 647.031C202.683 647.124 158.416 642.529 133.209 660.023C120.517 668.831 124.693 686.397 144.827 689.511C150.524 690.392 156.658 690.296 162.003 691.796C167.348 693.296 171.583 697.382 168.617 700.501C167.101 702.096 164.182 702.951 161.383 703.621C143.684 707.858 124.068 708.396 106.461 712.775C64.6251 723.179 71.8481 744.092 109.881 750.841C144.083 756.911 182.119 756.072 217.381 756.482C423.755 758.887 630.684 761.744 835.914 753.635C880.174 751.886 924.179 749.678 968.249 747.619C988.418 746.678 1013.66 744.224 1013.74 738.723C1013.8 734.893 1000.48 732.037 987.358 730.542C964.374 727.924 934.369 725.646 938.713 717.082C940.297 713.958 947.779 711.091 958.17 709.627C966.196 708.496 975.428 708.197 984.129 707.516C992.83 706.835 1001.75 705.585 1005.41 703.356C1015.26 697.355 990.451 693.783 972.986 693.235C952.068 692.579 935.013 688.361 942.224 681.997C947.247 677.564 963.596 674.566 968.567 670.129C970.566 668.345 970.563 666.425 969.234 664.596C955.957 646.323 886.598 647.89 860.75 646.522C812.93 643.991 764.896 643.508 716.926 643.281C608.108 642.767 499.286 643.625 390.49 644.959C358.113 645.355 325.715 646.019 293.32 646.492Z" fill="#145566"/>
<path d="M468.872 503.946L455.122 590.987L452.122 653.989L441.922 656.989L428.121 596.987L415.381 489.869L468.872 503.946Z" fill="#305399"/>
<path d="M441.923 659.389L440.723 665.989L443.123 678.589L451.523 677.99L453.323 659.389L452.123 656.389L441.923 659.389Z" fill="#3B455A"/>
<path d="M384.227 533.053L406.858 687.896H417.145L423.642 603.436L437.718 518.976L384.227 533.053Z" fill="#305399"/>
<path d="M407.048 691.506L393.801 699.833L395.367 706.19L419.495 701.425L417.646 692.246L407.048 691.506Z" fill="#3B455A"/>
<path d="M432.096 328.831C432.294 328.954 432.491 329.08 432.687 329.209C457.127 345.28 466.043 373.171 475.045 399.519C489.655 442.281 506.679 483.27 524.651 524.732C530.653 538.578 465.121 537.18 458.609 537.281C435.479 537.638 412.336 537.178 389.239 535.9C378.699 535.317 367.79 535.371 357.684 532.471C346.946 529.39 335.093 523.484 326.881 515.851C326.318 515.328 325.745 514.717 325.669 513.952C325.615 513.405 325.828 512.872 326.044 512.366C332.751 496.622 345.501 484.073 352.41 468.416C356.011 460.255 357.926 451.469 359.818 442.752C367.58 406.994 374.939 372.268 392.139 339.571C394.281 335.499 396.604 331.381 400.146 328.444C408.122 321.83 423.88 323.746 432.096 328.831Z" fill="#D7E8F4"/>
<path d="M395.168 301.943C392.899 307.755 395.428 314.204 397.656 319.719C399.632 324.61 400.243 327.794 394.546 328.797C391.336 329.362 385.636 330.432 382.977 327.861C380.964 325.913 382.437 320.29 383.576 318.084C384.447 316.4 386.563 315.629 387.389 313.922C387.729 313.218 387.814 312.421 387.864 311.641C388.07 308.456 387.791 305.24 387.04 302.137C386.53 300.03 385.8 297.949 385.724 295.783C385.613 292.642 388.01 289.11 389.318 286.296C391.751 281.06 399.641 274.271 405.729 278.788C407.115 279.817 407.869 281.474 408.487 283.086C408.856 284.048 409.203 285.051 409.163 286.08C409.003 290.187 405.22 290.689 402.533 292.511C399.219 294.758 396.616 298.233 395.168 301.943Z" fill="#3B455A"/>
<path d="M405.981 325.621C400.581 324.056 396.541 319.25 394.753 313.919C392.965 308.589 393.152 302.787 394.004 297.23C396.838 278.737 419.901 281.106 427.008 295.751C433.201 308.514 421.682 330.172 405.981 325.621Z" fill="#EAC5B0"/>
<path d="M424.918 304.419C425.005 307.337 423.317 310.491 424.789 313.011C425.445 314.134 426.605 314.846 427.573 315.715C430.215 318.089 431.452 321.923 430.697 325.394C436.528 325.465 442.358 325.536 448.189 325.607C449.068 325.618 449.991 325.618 450.765 325.201C452.42 324.31 452.619 322.058 452.61 320.179C452.592 316.478 452.492 312.512 450.341 309.501C449.343 308.105 447.964 307.015 446.971 305.616C442.195 298.886 447.766 287.776 441.828 282.045C439.178 279.488 435.166 279.105 431.839 277.526C426.038 274.773 422.457 268.434 416.489 266.062C405.22 261.584 393.4 275.002 399.679 285.564C404.798 294.179 424.567 292.668 424.918 304.419Z" fill="#3B455A"/>
<path d="M405.719 325.155C405.839 325.103 405.959 325.051 406.079 324.999C406.083 324.538 406.086 324.078 406.09 323.617L405.719 325.155Z" fill="#EAC5B0"/>
<path d="M416.928 326.014C416.759 324.146 416.189 322.243 416.675 320.431C413.143 321.954 409.61 323.477 406.078 324.999C406.066 326.661 406.053 328.322 406.041 329.984C406.039 330.295 406.047 330.636 406.253 330.869C406.487 331.134 406.885 331.159 407.239 331.165C408.968 331.193 410.696 331.221 412.425 331.249C413.282 331.263 414.173 331.27 414.948 330.903C416.643 330.102 417.098 327.882 416.928 326.014Z" fill="#EAC5B0"/>
<path d="M466.087 253.84L461.696 242.757L456.877 244.427L458.204 252.683L455.559 252.415L460.472 261.441L465.715 260.381L466.087 253.84Z" fill="#EBCEB1"/>
<path d="M431.184 338.29L464.36 312.058L457.784 258.942L468.296 257.37L489.959 318.361L458.373 367.545L431.184 338.29Z" fill="#D7E8F4"/>
<path d="M348.18 295.507L347.797 283.592L352.883 283.207L354.951 291.309L357.272 290.01L356.356 300.246L351.124 301.36L348.18 295.507Z" fill="#EBCEB1"/>
<path d="M416.401 365.062L372.935 348.229L357.828 296.884L347.559 299.625L351.959 364.199L400.51 396.749L416.401 365.062Z" fill="#D7E8F4"/>
<path d="M470.481 138.241C446.631 103.586 402.796 90.1425 365.301 104.667C365.231 104.694 365.16 104.704 365.09 104.724C353.67 110.384 344.596 120.175 341.62 134.584C340.966 137.75 336.27 136.851 336.929 133.663C340.119 118.219 349.465 107.504 361.391 101.089C343.686 56.9165 299.464 28.5336 254.428 36.2686C210.109 43.8806 177.129 83.2556 172.719 130.293C176.556 130.896 180.36 131.871 184.087 133.273C198.911 138.85 211.013 149.701 220.153 163.185C221.961 165.852 218.096 168.762 216.294 166.104C213.286 161.667 209.883 157.526 206.111 153.803C192.109 139.984 173.237 132.718 154.283 135.366C135.133 138.042 115.402 150.87 103.819 167.009C90.5454 185.504 84.6574 209.41 88.7674 232.574C92.8014 255.31 105.959 275.648 124.588 287.83C141.866 299.128 161.136 303.219 181.123 302.2C194.23 301.532 207.321 300.532 220.404 299.523C257.802 296.639 295.171 293.372 332.532 290.053C348.946 288.595 365.358 287.118 381.769 285.626C395.25 284.4 409.541 284.247 422.572 280.307C465.185 267.425 494.189 222.059 485.503 174.714C483.095 161.584 477.934 149.07 470.481 138.241Z" fill="#305399"/>
<path d="M569.556 708.381L568.318 716.133L582.585 726.362L591.576 719.847L585.061 710.857L570.794 700.628L569.556 708.381Z" fill="#3B455A"/>
<path d="M582.569 470.472L578.81 494.017L593.911 601.056L569.145 705.753L584.031 711.284L640.209 588.328L645.092 550.037L643.004 470.019L582.569 470.472Z" fill="#305399"/>
<path d="M678.718 479.259L679.876 579.465L660.993 708.664H646.474L637.303 589.45L617.434 470.236L678.718 479.259Z" fill="#305399"/>
<path d="M662.26 706.937H646.559V714.788L662.26 722.638L670.11 714.788L662.26 706.937Z" fill="#3B455A"/>
<path d="M631.832 352.876C627.348 352.264 622.865 351.652 618.381 351.04C618.47 347.432 618.848 343.832 619.51 340.284C615.808 338.827 611.547 336.69 611.037 332.744C610.877 331.501 611.137 330.247 611.395 329.021C612.464 323.952 613.534 318.883 614.603 313.814C614.973 312.061 615.364 310.257 616.379 308.78C618.16 306.189 621.471 305.149 624.586 304.726C632.536 303.646 641.081 305.674 647.016 311.074C648.595 312.511 650.008 314.221 650.653 316.256C651.647 319.395 650.692 322.781 649.74 325.933C648.861 328.842 647.981 331.751 647.102 334.66C646.09 338.006 644.668 341.799 641.366 342.946C639.613 343.555 637.58 343.283 635.978 344.221C633.156 345.874 633.376 349.99 631.832 352.876Z" fill="#EAC5B0"/>
<path d="M679.3 303.68C680.123 302.434 681.004 301.236 681.982 300.117C684.1 297.694 686.675 295.646 688.407 292.934C690.139 290.222 690.851 286.486 688.989 283.861C687.788 282.167 685.77 281.268 683.8 280.609C677.311 278.437 670.236 278.045 663.547 279.488C657.176 280.862 651.429 283.315 645.163 280.708C639.275 278.259 634.93 279.008 628.608 281.004C621.767 283.164 612.682 283.399 606.445 286.575C603.841 287.901 601.722 290.046 600.044 292.439C594.231 300.731 593.77 312.442 598.911 321.166C600.065 323.123 601.465 324.925 602.942 326.65C606 330.222 609.653 334.629 613.988 336.071C614.237 332.155 611.121 319.663 614.25 316.561C619.215 311.639 629.952 313.815 635.833 315.289C642.247 316.897 647.841 321.687 654.214 322.901C658.8 323.775 664.769 321.73 668.779 319.49C673.727 316.724 676.297 308.226 679.3 303.68Z" fill="#3B455A"/>
<path d="M701.428 324.046L703.414 316.306L699.732 310.299L700.608 308.872L702.409 309.88L700.78 304.019L702.795 299.512L709.235 298.207L715.311 301.234L715.928 307.765L712.677 314.857L710.417 325.569L701.428 324.046Z" fill="#EAC5B0"/>
<path d="M698.388 315.797L691.486 365.811L633.551 353.717L654.266 398.861L711.716 392.897L713.518 319.531L698.388 315.797Z" fill="#F7F7F7"/>
<path d="M573.452 280.304L574.443 272.328L580.103 268.062L579.808 266.403L577.752 266.684L581.436 261.798L581.209 256.836L575.663 253.243L568.861 253.838L565.877 259.724L566.307 267.559L564.477 278.418L573.452 280.304Z" fill="#EAC5B0"/>
<path d="M577.432 276.275L567.202 321.831L613 351.999L584.071 398.861L536.545 336.724L562.692 268.803L577.432 276.275Z" fill="#F7F7F7"/>
<path d="M569.226 499.026C569.026 508.168 569.313 520.489 572.825 520.94C573.483 521.024 574.114 520.699 574.69 520.385C580.763 517.069 585.06 512.402 591.047 509.199C597.322 505.841 604.5 504.057 611.539 502.808C622.065 500.885 632.825 499.692 643.55 499.505C655.195 499.302 677.865 501.592 677.865 501.592C684.41 500.492 690.664 498.237 696.934 496.146C707.706 492.554 718.708 489.388 728.816 484.356C732.059 482.741 741.007 477.97 737.81 473.651C735.389 470.381 727.164 468.192 723.458 466.183C715.179 461.696 707.221 456.573 700.213 450.421C690.254 441.677 682.905 430.952 678.304 418.872C675.982 412.774 674.308 406.472 672.925 400.13C669.164 382.876 666.345 369.765 651.706 358.083C647.377 354.628 642.638 351.459 637.254 350.161C633.331 349.215 629.239 349.304 625.207 349.467C618.493 349.739 611.786 350.202 605.098 350.854C603.245 351.035 601.331 351.25 599.716 352.178C597.808 353.276 596.568 355.225 595.476 357.136C588.782 368.859 587.531 380.794 583.731 393.218C580.67 403.223 578.103 413.523 576.428 423.86C574.757 434.178 573.21 444.517 572.007 454.895C570.664 466.476 569.742 478.109 569.547 489.76C569.527 491.056 569.321 494.682 569.226 499.026Z" fill="#F7F7F7"/>
<path d="M751.347 200.46C741.241 179.477 718.401 168.402 696.655 173.165C696.615 173.174 696.575 173.173 696.535 173.178C689.807 175.305 684.012 179.891 681.16 187.522C680.534 189.198 678.041 188.308 678.672 186.62C681.728 178.441 687.751 173.373 694.819 170.876C688.882 145.208 667.099 125.926 641.804 126.335C616.912 126.737 595.528 145.479 589.122 170.837C591.17 171.492 593.168 172.349 595.088 173.432C602.724 177.741 608.424 184.705 612.28 192.857C613.043 194.469 610.681 195.734 609.921 194.126C608.652 191.444 607.142 188.889 605.394 186.532C598.907 177.784 589.199 172.206 578.605 172.046C567.901 171.884 556.018 177.228 548.311 185.073C539.479 194.065 534.229 206.643 534.511 219.664C534.788 232.445 540.26 244.688 549.417 252.933C557.91 260.58 568.106 264.454 579.126 265.593C586.354 266.34 593.6 266.904 600.843 267.463C621.547 269.06 642.268 270.444 662.989 271.799C672.092 272.395 681.197 272.981 690.301 273.557C697.78 274.031 705.611 275.159 713.074 274.11C737.48 270.679 757.198 248.323 756.465 221.684C756.266 214.301 754.505 207.017 751.347 200.46Z" fill="#305399"/>
<path d="M180.449 512.657V530.633L204.417 608.529L198.425 689.422L213.405 692.417L237.373 593.549L236.457 564.46L225.389 505.135L180.449 512.657Z" fill="#305399"/>
<path d="M199.463 533.941L175.38 698.722H164.433L157.519 608.841L142.539 518.961L199.463 533.941Z" fill="#305399"/>
<path d="M210.926 694.472L222.362 706.575L219.058 712.71L195.463 701.384L199.809 692.417L210.926 694.472Z" fill="#3B455A"/>
<path d="M175.178 702.562L189.274 711.424L187.608 718.19L161.932 713.119L163.899 703.352L175.178 702.562Z" fill="#3B455A"/>
<path d="M284.059 370.115L291.245 359.431L286.812 356.16L280.271 362.388L278.893 359.868L273.857 369.76L278.007 373.782L284.059 370.115Z" fill="#EAC5B0"/>
<path d="M180.62 384.051L229.045 397.829L275.484 363.4L282.552 372.446L236.733 425.248L173.695 421.708L180.62 384.051Z" fill="#7DB5DB"/>
<path d="M162.928 351.361C161.439 348.75 161.037 345.605 161.248 342.585C161.702 336.107 165.245 329.636 171.011 326.988C179.879 322.915 190.515 328.648 199.816 325.773C200.884 329.55 201.932 333.39 201.986 337.323C202.1 345.72 197.24 353.984 189.955 357.778C182.671 361.572 173.317 360.712 166.804 355.648C165.281 354.464 163.894 353.055 162.928 351.361Z" fill="#EAC5B0"/>
<path d="M198.085 329.178L168.029 332.438L167.496 356.092L157.725 351.438L153.562 313.892L194.645 303.497L214.938 309.867L216.6 320.552L203.092 334.992L198.085 329.178Z" fill="#3B455A"/>
<path d="M196.471 368.132L159.655 364.434C159.655 364.434 130.042 398.935 115.636 449.356C101.23 499.778 133.244 570.497 133.244 570.497C133.244 570.497 232.676 550.199 248.988 546.997L216.807 446.154L196.471 368.132Z" fill="#7DB5DB"/>
<path d="M175.911 357.362L174.278 356.934C173.463 359.903 172.286 362.772 170.783 365.458C175.531 366.124 180.279 366.791 185.028 367.457C185.502 364.112 185.976 360.768 186.45 357.423C182.938 357.402 179.424 357.382 175.911 357.362Z" fill="#EBCEB1"/>
<path d="M250.017 307.89L251.668 295.12L246.241 294.176L243.174 302.671L240.815 301.033L240.732 312.133L246.241 313.875L250.017 307.89Z" fill="#EAC5B0"/>
<path d="M169.428 375.563L217.911 361.993L239.5 308.365L250.255 312.382L238.799 381.346L183.211 411.284L169.428 375.563Z" fill="#7DB5DB"/>
<path d="M936.071 696.549L936.773 703.479L924.183 712.119L916.836 706.046L922.779 698.26L935.369 689.619L936.071 696.549Z" fill="#3B455A"/>
<path d="M935.756 484.68L937.888 505.725L919.009 578.033L936.539 694.226L923.635 698.673L889.608 585.233L884.207 552.232L884.404 482.37L935.756 484.68Z" fill="#7DB5DB"/>
<path d="M836.506 508.137L863.649 702.836H875.987L878.207 578.034L900.663 490.437L836.506 508.137Z" fill="#7DB5DB"/>
<path d="M862.573 701.296L855.902 708.29L862.573 715.283L875.915 708.29V701.296H862.573Z" fill="#3B455A"/>
<path d="M867.577 356.529C877.395 348.401 901.064 353.074 913.517 353.074C916.112 380.399 921.121 407.688 927.251 434.413C932.548 457.508 942.647 480.023 947.142 503.086C951.151 523.655 959.886 538.442 976.312 552.531C978.871 554.726 981.819 557.576 981.057 560.861C980.597 562.842 978.877 564.249 977.2 565.399C960.64 576.757 939.35 577.94 919.272 578.279C904.026 578.536 888.776 578.527 873.53 578.252C853.668 577.893 831.569 575.557 814.634 564.067C813.565 563.342 812.423 562.405 812.342 561.116C812.273 560.011 813.013 559.041 813.662 558.144C825.491 541.799 824.122 514.767 826.428 495.631C829.03 474.034 831.644 452.376 836.799 431.242C840.143 417.533 844.556 404.086 849.974 391.057C854.099 381.138 859.021 364.893 866.77 357.257C867.027 357.004 867.296 356.761 867.577 356.529Z" fill="#D7E8F4"/>
<path d="M896.63 319.238C895.677 313.847 892.51 308.882 888.024 305.744C882.566 307.781 878.221 312.58 876.737 318.214C875.252 323.848 876.667 330.165 880.412 334.628C882.244 326.752 889.221 320.338 897.223 319.174L896.63 319.238Z" fill="#3B455A"/>
<path d="M887.998 358.92C882.109 356.149 878.364 349.92 877.289 343.501C876.214 337.082 877.482 330.485 879.466 324.287C886.067 303.66 912.004 310.56 917.466 328.594C922.226 344.311 905.12 366.976 887.998 358.92Z" fill="#EAC5B0"/>
<path d="M895.205 503.046C891.461 500.199 891.895 494.601 890.926 489.998C889.957 485.395 884.156 480.818 881.097 484.39C874.592 481.715 871.171 474.184 871.193 467.151C871.215 460.118 873.983 453.419 876.706 446.935C882.74 432.565 888.387 417.951 894.835 403.763C900.931 390.351 903.351 375.592 905.807 361.315C907.038 354.16 905.34 346.75 902.332 340.143C899.324 333.535 895.055 327.595 890.861 321.668C889.117 319.203 887.321 316.576 887.065 313.567C886.783 310.239 888.502 306.975 890.953 304.706C894.725 301.215 898.871 299.758 903.857 300.252C921.36 301.985 933.208 313.924 936.059 331.576C938.47 346.5 934.608 361.616 931.828 376.475C927.647 398.819 929.059 425.418 939.978 445.604C944.428 453.829 949.372 462.142 950.45 471.431C951.528 480.72 947.469 491.393 938.698 494.636C935.271 495.903 931.378 495.973 928.29 497.926C925.045 499.978 924.312 504.097 926.654 507.005C922.026 513.17 918.382 507.814 913.721 505.953C908.036 503.683 899.996 506.688 895.205 503.046Z" fill="#3B455A"/>
<path d="M989.55 207.365C976.923 188.946 953.668 181.768 933.75 189.441C933.713 189.455 933.675 189.461 933.638 189.471C927.571 192.464 922.744 197.653 921.15 205.299C920.8 206.979 918.308 206.497 918.661 204.805C920.369 196.61 925.341 190.931 931.677 187.538C922.321 164.074 898.875 148.964 874.961 153.026C851.428 157.024 833.883 177.893 831.497 202.857C833.533 203.181 835.552 203.702 837.529 204.45C845.393 207.425 851.806 213.196 856.645 220.363C857.602 221.78 855.548 223.322 854.594 221.909C853.002 219.551 851.199 217.35 849.201 215.37C841.782 208.021 831.771 204.145 821.707 205.533C811.539 206.935 801.053 213.725 794.889 222.281C787.825 232.086 784.676 244.77 786.835 257.07C788.954 269.143 795.919 279.952 805.796 286.436C814.957 292.45 825.182 294.64 835.793 294.119C842.751 293.777 849.701 293.259 856.647 292.736C876.502 291.242 896.341 289.543 916.176 287.817C924.89 287.059 933.604 286.291 942.317 285.514C949.474 284.876 957.06 284.809 963.981 282.73C986.614 275.933 1002.05 251.879 997.489 226.739C996.223 219.768 993.496 213.121 989.55 207.365Z" fill="#305399"/>
<path d="M826.277 312.113L827.054 304.161L832.568 299.773L832.231 298.132L830.195 298.465L833.729 293.513L833.374 288.588L827.768 285.162L821.023 285.93L818.212 291.857L818.844 299.634L817.307 310.473L826.277 312.113Z" fill="#EAC5B0"/>
<path d="M831.951 305.399L831.668 356.246L876.897 360.264L854.231 398.861L807.982 373.272L816.455 303.738L831.951 305.399Z" fill="#D7E8F4"/>
<path d="M621.114 387.553C621.115 399.593 621.621 411.798 625.166 423.304C631.507 443.887 647.94 461.095 668.208 468.378C668.455 463.831 668.702 459.283 668.949 454.736C669.012 453.576 669.071 452.388 668.725 451.279C668.243 449.737 667.043 448.545 665.902 447.401C658.767 440.243 652.355 432.363 646.795 423.922C643.92 419.557 641.258 415.011 639.468 410.101C637.455 404.581 636.585 398.721 635.727 392.908C634.087 381.804 632.448 370.699 630.808 359.595C630.981 360.767 633.613 358.142 633.529 356.898C633.418 355.241 630.973 354.164 629.678 353.606C626.886 352.403 619.869 351.946 617.551 354.185C614.653 356.985 618.285 357.86 619.185 359.201C620.794 361.599 621.524 361.046 621.886 364.909C622.586 372.374 621.114 380.067 621.114 387.553Z" fill="#7DB5DB"/>
</svg>
